<svg width="16" height="16" viewBox="0 0 16 16" fill="none" xmlns="http://www.w3.org/2000/svg">
<path d="M14.6124 2.26562C14.6124 2.13619 14.5075 2.03125 14.378 2.03125C14.2486 2.03125 14.1437 2.13619 14.1437 2.26562V12.7476H3.24927V0.46875H4.37692V3.25206C4.37692 3.34741 4.4347 3.43325 4.52302 3.46919C4.6113 3.50506 4.71261 3.48394 4.77917 3.41563L5.62311 2.54947L6.46708 3.41563C6.51208 3.46181 6.57295 3.48647 6.63498 3.48647C6.66467 3.48647 6.69464 3.48081 6.72323 3.46919C6.81155 3.43328 6.86933 3.34744 6.86933 3.25206V0.46875H14.1437V1.32812C14.1437 1.45756 14.2486 1.5625 14.3781 1.5625C14.5075 1.5625 14.6125 1.45756 14.6125 1.32812V0.234375C14.6125 0.104937 14.5075 0 14.3781 0H3.01492C2.58033 0 2.17186 0.169094 1.86483 0.476156C1.5578 0.783219 1.38867 1.19166 1.38867 1.62625V14.3737C1.38867 14.3741 1.38873 14.3745 1.38873 14.3749C1.38933 15.2711 2.11858 16 3.01489 16H14.3782C14.5076 16 14.6125 15.8951 14.6125 15.7656L14.6124 2.26562ZM6.40055 0.46875V2.67569L5.79095 2.05006C5.74683 2.00478 5.6863 1.97925 5.62308 1.97925C5.55986 1.97925 5.49933 2.00478 5.4552 2.05006L4.84564 2.67569V0.46875H6.40055ZM2.19627 0.807594C2.35852 0.645375 2.56058 0.537406 2.78052 0.492469V12.7647C2.42173 12.8168 2.10061 12.9862 1.85742 13.233V1.62625C1.85742 1.31684 1.97777 1.02612 2.19627 0.807594ZM3.01489 15.5312C2.37667 15.5312 1.85745 15.012 1.85745 14.3738C1.85745 13.7356 2.37667 13.2163 3.01489 13.2163H14.1438V13.5288H4.70492C4.57548 13.5288 4.47055 13.6337 4.47055 13.7631C4.47055 13.8926 4.57548 13.9975 4.70492 13.9975H14.1437V14.75H3.01492C2.80745 14.75 2.63867 14.5812 2.63867 14.3737C2.63867 14.1663 2.80745 13.9975 3.01492 13.9975H3.76742C3.89686 13.9975 4.0018 13.8926 4.0018 13.7631C4.0018 13.6337 3.89686 13.5288 3.76742 13.5288H3.01492C2.54898 13.5288 2.16992 13.9078 2.16992 14.3737C2.16992 14.8397 2.54898 15.2188 3.01492 15.2188H14.1438V15.5312H3.01489Z" fill="#2356F6"/>
<path d="M5.65141 3.89014C4.98206 3.89014 4.4375 4.4347 4.4375 5.10404V8.09295C4.4375 8.76229 4.98206 9.30686 5.65141 9.30686H11.0471C11.7165 9.30686 12.261 8.76229 12.261 8.09295V5.10404C12.261 4.4347 11.7165 3.89014 11.0471 3.89014H5.65141ZM11.7923 5.10404V8.09295C11.7923 8.50382 11.458 8.83811 11.0471 8.83811H5.65141C5.24053 8.83811 4.90625 8.50382 4.90625 8.09295V5.10404C4.90625 4.69317 5.24053 4.35889 5.65141 4.35889H11.0471C11.458 4.35889 11.7923 4.69317 11.7923 5.10404Z" fill="#2356F6"/>
<path d="M10.5493 5.74316H6.14648C6.01705 5.74316 5.91211 5.8481 5.91211 5.97754C5.91211 6.10698 6.01705 6.21191 6.14648 6.21191H10.5493C10.6787 6.21191 10.7836 6.10698 10.7836 5.97754C10.7836 5.8481 10.6787 5.74316 10.5493 5.74316Z" fill="#2356F6"/>
<path d="M10.5493 6.98486H6.14648C6.01705 6.98486 5.91211 7.0898 5.91211 7.21924C5.91211 7.34868 6.01705 7.45361 6.14648 7.45361H10.5493C10.6787 7.45361 10.7836 7.34868 10.7836 7.21924C10.7836 7.0898 10.6787 6.98486 10.5493 6.98486Z" fill="#2356F6"/>
</svg>
